<mxfile host="app.diagrams.net" modified="2024-05-14T14:55:39.244Z" agent="Mozilla/5.0 (Windows NT 10.0; Win64; x64) AppleWebKit/537.36 (KHTML, like Gecko) Chrome/124.0.0.0 Safari/537.36" etag="SHfMlw8lpyWCR7WtTYN2" version="24.4.0" type="device">
  <diagram id="R2lEEEUBdFMjLlhIrx00" name="Page-1">
    <mxGraphModel dx="1499" dy="1795" grid="1" gridSize="10" guides="1" tooltips="1" connect="1" arrows="1" fold="1" page="1" pageScale="1" pageWidth="850" pageHeight="1100" math="0" shadow="0" extFonts="Permanent Marker^https://fonts.googleapis.com/css?family=Permanent+Marker">
      <root>
        <mxCell id="0" />
        <mxCell id="1" parent="0" />
        <mxCell id="LqP2NPi9a7aLQYuPG1_W-3" value="" style="edgeStyle=orthogonalEdgeStyle;rounded=0;orthogonalLoop=1;jettySize=auto;html=1;" parent="1" source="LqP2NPi9a7aLQYuPG1_W-1" target="LqP2NPi9a7aLQYuPG1_W-2" edge="1">
          <mxGeometry relative="1" as="geometry" />
        </mxCell>
        <mxCell id="LqP2NPi9a7aLQYuPG1_W-1" value="whata:BlandingBlamingClaim" style="graphMlID=n4;shape=rect;rounded=1;arcsize=30;fillColor=#ffff00;strokeColor=#000000;strokeWidth=1.0" parent="1" vertex="1">
          <mxGeometry x="335" y="87.5" width="140" height="75" as="geometry" />
        </mxCell>
        <mxCell id="LqP2NPi9a7aLQYuPG1_W-5" value="" style="edgeStyle=orthogonalEdgeStyle;rounded=0;orthogonalLoop=1;jettySize=auto;html=1;" parent="1" source="LqP2NPi9a7aLQYuPG1_W-2" target="LqP2NPi9a7aLQYuPG1_W-4" edge="1">
          <mxGeometry relative="1" as="geometry" />
        </mxCell>
        <mxCell id="LqP2NPi9a7aLQYuPG1_W-2" value="whata:BlamedEventuality" style="graphMlID=n4;shape=rect;rounded=1;arcsize=30;fillColor=#ffff00;strokeColor=#000000;strokeWidth=1.0" parent="1" vertex="1">
          <mxGeometry x="320" y="240" width="160" height="70" as="geometry" />
        </mxCell>
        <mxCell id="LqP2NPi9a7aLQYuPG1_W-4" value="whata:Co-Blamed Eventuality" style="whiteSpace=wrap;html=1;fillColor=#ffff00;strokeColor=#000000;rounded=1;strokeWidth=1;" parent="1" vertex="1">
          <mxGeometry x="325" y="379" width="150" height="81" as="geometry" />
        </mxCell>
        <mxCell id="LqP2NPi9a7aLQYuPG1_W-9" value="" style="edgeStyle=orthogonalEdgeStyle;rounded=0;orthogonalLoop=1;jettySize=auto;html=1;" parent="1" source="LqP2NPi9a7aLQYuPG1_W-6" target="LqP2NPi9a7aLQYuPG1_W-1" edge="1">
          <mxGeometry relative="1" as="geometry" />
        </mxCell>
        <mxCell id="LqP2NPi9a7aLQYuPG1_W-46" value="" style="edgeStyle=orthogonalEdgeStyle;rounded=0;orthogonalLoop=1;jettySize=auto;html=1;" parent="1" source="LqP2NPi9a7aLQYuPG1_W-6" target="LqP2NPi9a7aLQYuPG1_W-7" edge="1">
          <mxGeometry relative="1" as="geometry" />
        </mxCell>
        <mxCell id="LqP2NPi9a7aLQYuPG1_W-6" value="cp:Blending" style="graphMlID=n4;shape=rect;rounded=1;arcsize=30;fillColor=#ffff00;strokeColor=#000000;strokeWidth=1.0" parent="1" vertex="1">
          <mxGeometry x="120" y="103" width="81.96822102864604" height="44" as="geometry" />
        </mxCell>
        <mxCell id="LqP2NPi9a7aLQYuPG1_W-10" value="" style="edgeStyle=orthogonalEdgeStyle;rounded=0;orthogonalLoop=1;jettySize=auto;html=1;" parent="1" source="LqP2NPi9a7aLQYuPG1_W-7" target="LqP2NPi9a7aLQYuPG1_W-2" edge="1">
          <mxGeometry relative="1" as="geometry" />
        </mxCell>
        <mxCell id="LqP2NPi9a7aLQYuPG1_W-47" value="" style="edgeStyle=orthogonalEdgeStyle;rounded=0;orthogonalLoop=1;jettySize=auto;html=1;" parent="1" source="LqP2NPi9a7aLQYuPG1_W-7" target="LqP2NPi9a7aLQYuPG1_W-8" edge="1">
          <mxGeometry relative="1" as="geometry" />
        </mxCell>
        <mxCell id="LqP2NPi9a7aLQYuPG1_W-7" value="cp:Blendable" style="graphMlID=n4;shape=rect;rounded=1;arcsize=30;fillColor=#ffff00;strokeColor=#000000;strokeWidth=1.0" parent="1" vertex="1">
          <mxGeometry x="120" y="253" width="81.96822102864604" height="44" as="geometry" />
        </mxCell>
        <mxCell id="LqP2NPi9a7aLQYuPG1_W-11" value="" style="edgeStyle=orthogonalEdgeStyle;rounded=0;orthogonalLoop=1;jettySize=auto;html=1;" parent="1" source="LqP2NPi9a7aLQYuPG1_W-8" target="LqP2NPi9a7aLQYuPG1_W-4" edge="1">
          <mxGeometry relative="1" as="geometry" />
        </mxCell>
        <mxCell id="LqP2NPi9a7aLQYuPG1_W-8" value="cp:Blended" style="graphMlID=n4;shape=rect;rounded=1;arcsize=30;fillColor=#ffff00;strokeColor=#000000;strokeWidth=1.0" parent="1" vertex="1">
          <mxGeometry x="120" y="397.5" width="81.96822102864604" height="44" as="geometry" />
        </mxCell>
        <mxCell id="LqP2NPi9a7aLQYuPG1_W-12" value="" style="graphMlID=e0;rounded=0;endArrow=block;strokeColor=#000080;strokeWidth=1.0;startArrow=oval;startFill=1;endFill=1;exitX=1;exitY=0.5;exitDx=0;exitDy=0;" parent="1" source="netNDr4inBoCcSag8qre-5" target="LqP2NPi9a7aLQYuPG1_W-15" edge="1">
          <mxGeometry relative="1" as="geometry">
            <mxPoint x="370" y="20" as="sourcePoint" />
            <mxPoint x="591" y="60" as="targetPoint" />
          </mxGeometry>
        </mxCell>
        <mxCell id="LqP2NPi9a7aLQYuPG1_W-13" value="whata:isComposedBy" style="text;html=1;align=center;verticalAlign=middle;resizable=0;points=[];labelBackgroundColor=#ffffff;" parent="LqP2NPi9a7aLQYuPG1_W-12" vertex="1" connectable="0">
          <mxGeometry x="-0.0174" y="2" relative="1" as="geometry">
            <mxPoint x="-1" as="offset" />
          </mxGeometry>
        </mxCell>
        <mxCell id="LqP2NPi9a7aLQYuPG1_W-15" value="whata:ResponsibilityOwner" style="graphMlID=n4;shape=rect;rounded=1;arcsize=30;fillColor=#ffff00;strokeColor=#000000;strokeWidth=1.0" parent="1" vertex="1">
          <mxGeometry x="592.95" y="-130" width="160" height="50" as="geometry" />
        </mxCell>
        <mxCell id="LqP2NPi9a7aLQYuPG1_W-18" value="whata:Ought" style="graphMlID=n4;shape=rect;rounded=1;arcsize=30;fillColor=#ffff00;strokeColor=#000000;strokeWidth=1.0" parent="1" vertex="1">
          <mxGeometry x="670.98" y="70" width="81.96822102864604" height="44" as="geometry" />
        </mxCell>
        <mxCell id="LqP2NPi9a7aLQYuPG1_W-19" value="" style="graphMlID=e0;rounded=0;endArrow=block;strokeColor=#000080;strokeWidth=1.0;startArrow=oval;startFill=1;endFill=1;exitX=1;exitY=0.75;exitDx=0;exitDy=0;entryX=0;entryY=0.545;entryDx=0;entryDy=0;entryPerimeter=0;" parent="1" source="netNDr4inBoCcSag8qre-5" target="LqP2NPi9a7aLQYuPG1_W-18" edge="1">
          <mxGeometry relative="1" as="geometry">
            <mxPoint x="490" y="100.08183758898736" as="sourcePoint" />
            <mxPoint x="641" y="100" as="targetPoint" />
          </mxGeometry>
        </mxCell>
        <mxCell id="LqP2NPi9a7aLQYuPG1_W-20" value="&lt;span style=&quot;color: rgb(0, 0, 128); font-family: dialog; background-color: rgb(248, 249, 250);&quot;&gt;&lt;font style=&quot;font-size: 14px;&quot;&gt;whata:isComposedBy&lt;/font&gt;&lt;/span&gt;" style="text;html=1;align=center;verticalAlign=middle;resizable=0;points=[];labelBackgroundColor=#ffffff;" parent="LqP2NPi9a7aLQYuPG1_W-19" vertex="1" connectable="0">
          <mxGeometry x="-0.0174" y="2" relative="1" as="geometry">
            <mxPoint as="offset" />
          </mxGeometry>
        </mxCell>
        <mxCell id="LqP2NPi9a7aLQYuPG1_W-21" value="" style="graphMlID=e0;rounded=0;endArrow=block;strokeColor=#000080;strokeWidth=1.0;startArrow=oval;startFill=1;endFill=1;exitX=0.585;exitY=0.997;exitDx=0;exitDy=0;exitPerimeter=0;entryX=0.609;entryY=0.021;entryDx=0;entryDy=0;entryPerimeter=0;" parent="1" source="LqP2NPi9a7aLQYuPG1_W-15" target="LqP2NPi9a7aLQYuPG1_W-18" edge="1">
          <mxGeometry relative="1" as="geometry">
            <mxPoint x="590" y="90.08183758898736" as="sourcePoint" />
            <mxPoint x="741" y="90" as="targetPoint" />
          </mxGeometry>
        </mxCell>
        <mxCell id="LqP2NPi9a7aLQYuPG1_W-22" value="&lt;span style=&quot;color: rgb(0 , 0 , 128) ; font-family: &amp;quot;dialog&amp;quot; ; font-size: 16px ; background-color: rgb(248 , 249 , 250)&quot;&gt;whata:contrasts&lt;/span&gt;" style="text;html=1;align=center;verticalAlign=middle;resizable=0;points=[];labelBackgroundColor=#ffffff;" parent="LqP2NPi9a7aLQYuPG1_W-21" vertex="1" connectable="0">
          <mxGeometry x="-0.0174" y="2" relative="1" as="geometry">
            <mxPoint as="offset" />
          </mxGeometry>
        </mxCell>
        <mxCell id="LqP2NPi9a7aLQYuPG1_W-23" value="whata:Whataboutism" style="graphMlID=n4;shape=rect;rounded=1;arcsize=30;fillColor=#ffff00;strokeColor=#000000;strokeWidth=1.0" parent="1" vertex="1">
          <mxGeometry x="628" y="300" width="132" height="70" as="geometry" />
        </mxCell>
        <mxCell id="LqP2NPi9a7aLQYuPG1_W-26" value="" style="graphMlID=e0;rounded=0;endArrow=block;strokeColor=#000080;strokeWidth=1.0;startArrow=oval;startFill=1;endFill=1" parent="1" source="LqP2NPi9a7aLQYuPG1_W-23" target="LqP2NPi9a7aLQYuPG1_W-2" edge="1">
          <mxGeometry relative="1" as="geometry">
            <mxPoint x="440" y="320.08183758898736" as="sourcePoint" />
            <mxPoint x="591" y="320" as="targetPoint" />
          </mxGeometry>
        </mxCell>
        <mxCell id="LqP2NPi9a7aLQYuPG1_W-27" value="&lt;span style=&quot;color: rgb(0, 0, 128); font-family: dialog; background-color: rgb(248, 249, 250);&quot;&gt;&lt;font style=&quot;font-size: 14px;&quot;&gt;whata:shiftsFocusfrom&lt;/font&gt;&lt;/span&gt;" style="text;html=1;align=center;verticalAlign=middle;resizable=0;points=[];labelBackgroundColor=#ffffff;" parent="LqP2NPi9a7aLQYuPG1_W-26" vertex="1" connectable="0">
          <mxGeometry x="-0.0174" y="2" relative="1" as="geometry">
            <mxPoint as="offset" />
          </mxGeometry>
        </mxCell>
        <mxCell id="LqP2NPi9a7aLQYuPG1_W-28" value="" style="graphMlID=e0;rounded=0;endArrow=block;strokeColor=#000080;strokeWidth=1.0;startArrow=oval;startFill=1;endFill=1;entryX=0.994;entryY=0.583;entryDx=0;entryDy=0;entryPerimeter=0;exitX=-0.004;exitY=0.841;exitDx=0;exitDy=0;exitPerimeter=0;" parent="1" source="LqP2NPi9a7aLQYuPG1_W-23" target="LqP2NPi9a7aLQYuPG1_W-4" edge="1">
          <mxGeometry relative="1" as="geometry">
            <mxPoint x="630" y="380" as="sourcePoint" />
            <mxPoint x="641" y="320" as="targetPoint" />
          </mxGeometry>
        </mxCell>
        <mxCell id="LqP2NPi9a7aLQYuPG1_W-29" value="whata:shiftsFocusOn" style="text;html=1;align=center;verticalAlign=middle;resizable=0;points=[];labelBackgroundColor=#ffffff;" parent="LqP2NPi9a7aLQYuPG1_W-28" vertex="1" connectable="0">
          <mxGeometry x="-0.0174" y="2" relative="1" as="geometry">
            <mxPoint as="offset" />
          </mxGeometry>
        </mxCell>
        <mxCell id="LqP2NPi9a7aLQYuPG1_W-30" value="cp:Lens" style="graphMlID=n4;shape=rect;rounded=1;arcsize=30;fillColor=#ffff00;strokeColor=#000000;strokeWidth=1.0" parent="1" vertex="1">
          <mxGeometry x="790" y="430" width="85.99" height="40" as="geometry" />
        </mxCell>
        <mxCell id="LqP2NPi9a7aLQYuPG1_W-33" value="whata:BlamingFrameDescription" style="graphMlID=n4;shape=rect;rounded=1;arcsize=30;fillColor=#ffff00;strokeColor=#000000;strokeWidth=1.0" parent="1" vertex="1">
          <mxGeometry x="280" y="-260" width="185.5" height="80" as="geometry" />
        </mxCell>
        <mxCell id="LqP2NPi9a7aLQYuPG1_W-36" value="" style="graphMlID=e0;rounded=0;endArrow=block;strokeColor=#000080;strokeWidth=1.0;startArrow=oval;startFill=1;endFill=1;entryX=0.75;entryY=1;entryDx=0;entryDy=0;exitX=0.75;exitY=0;exitDx=0;exitDy=0;" parent="1" source="netNDr4inBoCcSag8qre-5" target="LqP2NPi9a7aLQYuPG1_W-33" edge="1">
          <mxGeometry relative="1" as="geometry">
            <mxPoint x="340" y="-10" as="sourcePoint" />
            <mxPoint x="331.7499999999998" as="targetPoint" />
          </mxGeometry>
        </mxCell>
        <mxCell id="LqP2NPi9a7aLQYuPG1_W-37" value="&lt;span style=&quot;color: rgb(0 , 0 , 128) ; font-family: &amp;quot;dialog&amp;quot; ; font-size: 16px ; background-color: rgb(248 , 249 , 250)&quot;&gt;satisfies&lt;/span&gt;" style="text;html=1;align=center;verticalAlign=middle;resizable=0;points=[];labelBackgroundColor=#ffffff;" parent="LqP2NPi9a7aLQYuPG1_W-36" vertex="1" connectable="0">
          <mxGeometry x="-0.0174" y="2" relative="1" as="geometry">
            <mxPoint as="offset" />
          </mxGeometry>
        </mxCell>
        <mxCell id="LqP2NPi9a7aLQYuPG1_W-38" value="cp:Perspectivisation" style="graphMlID=n4;shape=rect;rounded=1;arcsize=30;fillColor=#ffff00;strokeColor=#000000;strokeWidth=1.0" parent="1" vertex="1">
          <mxGeometry x="840" y="170" width="130" height="60" as="geometry" />
        </mxCell>
        <mxCell id="LqP2NPi9a7aLQYuPG1_W-40" value="" style="graphMlID=e0;rounded=0;endArrow=block;strokeColor=#000080;strokeWidth=1.0;startArrow=oval;startFill=1;endFill=1;entryX=1;entryY=0.5;entryDx=0;entryDy=0;exitX=0;exitY=0.25;exitDx=0;exitDy=0;" parent="1" source="LqP2NPi9a7aLQYuPG1_W-38" target="LqP2NPi9a7aLQYuPG1_W-2" edge="1">
          <mxGeometry relative="1" as="geometry">
            <mxPoint x="580" y="210" as="sourcePoint" />
            <mxPoint x="640" y="264" as="targetPoint" />
          </mxGeometry>
        </mxCell>
        <mxCell id="LqP2NPi9a7aLQYuPG1_W-41" value="&lt;span style=&quot;color: rgb(0 , 0 , 128) ; font-family: &amp;quot;dialog&amp;quot; ; font-size: 16px ; background-color: rgb(248 , 249 , 250)&quot;&gt;cp:Eventuality&lt;/span&gt;" style="text;html=1;align=center;verticalAlign=middle;resizable=0;points=[];labelBackgroundColor=#ffffff;" parent="LqP2NPi9a7aLQYuPG1_W-40" vertex="1" connectable="0">
          <mxGeometry x="-0.0174" y="2" relative="1" as="geometry">
            <mxPoint as="offset" />
          </mxGeometry>
        </mxCell>
        <mxCell id="LqP2NPi9a7aLQYuPG1_W-42" value="" style="graphMlID=e0;rounded=0;endArrow=block;strokeColor=#000080;strokeWidth=1.0;startArrow=oval;startFill=1;endFill=1;exitX=0.58;exitY=0.977;exitDx=0;exitDy=0;exitPerimeter=0;entryX=1;entryY=0.5;entryDx=0;entryDy=0;" parent="1" source="LqP2NPi9a7aLQYuPG1_W-38" target="LqP2NPi9a7aLQYuPG1_W-23" edge="1">
          <mxGeometry relative="1" as="geometry">
            <mxPoint x="850" y="250" as="sourcePoint" />
            <mxPoint x="981" y="340" as="targetPoint" />
          </mxGeometry>
        </mxCell>
        <mxCell id="LqP2NPi9a7aLQYuPG1_W-43" value="cp:Lens" style="text;html=1;align=center;verticalAlign=middle;resizable=0;points=[];labelBackgroundColor=#ffffff;" parent="LqP2NPi9a7aLQYuPG1_W-42" vertex="1" connectable="0">
          <mxGeometry x="-0.0174" y="2" relative="1" as="geometry">
            <mxPoint as="offset" />
          </mxGeometry>
        </mxCell>
        <mxCell id="LqP2NPi9a7aLQYuPG1_W-45" value="" style="edgeStyle=orthogonalEdgeStyle;rounded=0;orthogonalLoop=1;jettySize=auto;html=1;" parent="1" source="LqP2NPi9a7aLQYuPG1_W-44" target="LqP2NPi9a7aLQYuPG1_W-6" edge="1">
          <mxGeometry relative="1" as="geometry" />
        </mxCell>
        <mxCell id="LqP2NPi9a7aLQYuPG1_W-44" value="cp:BlendingTheorySituation" style="graphMlID=n4;shape=rect;rounded=1;arcsize=30;fillColor=#ffff00;strokeColor=#000000;strokeWidth=1.0" parent="1" vertex="1">
          <mxGeometry x="-100" y="95" width="150" height="60" as="geometry" />
        </mxCell>
        <mxCell id="LqP2NPi9a7aLQYuPG1_W-50" value="" style="edgeStyle=orthogonalEdgeStyle;rounded=0;orthogonalLoop=1;jettySize=auto;html=1;" parent="1" source="LqP2NPi9a7aLQYuPG1_W-48" target="LqP2NPi9a7aLQYuPG1_W-30" edge="1">
          <mxGeometry relative="1" as="geometry" />
        </mxCell>
        <mxCell id="LqP2NPi9a7aLQYuPG1_W-48" value="cp:PerspectivisationTheorySituation" style="graphMlID=n4;shape=rect;rounded=1;arcsize=30;fillColor=#ffff00;strokeColor=#000000;strokeWidth=1.0" parent="1" vertex="1">
          <mxGeometry x="960" y="419" width="210" height="62" as="geometry" />
        </mxCell>
        <mxCell id="LqP2NPi9a7aLQYuPG1_W-51" value="" style="endArrow=classic;html=1;rounded=0;exitX=0.361;exitY=0.028;exitDx=0;exitDy=0;exitPerimeter=0;entryX=0.848;entryY=1.051;entryDx=0;entryDy=0;entryPerimeter=0;" parent="1" source="LqP2NPi9a7aLQYuPG1_W-48" target="LqP2NPi9a7aLQYuPG1_W-38" edge="1">
          <mxGeometry width="50" height="50" relative="1" as="geometry">
            <mxPoint x="820" y="390" as="sourcePoint" />
            <mxPoint x="870" y="340" as="targetPoint" />
          </mxGeometry>
        </mxCell>
        <mxCell id="LqP2NPi9a7aLQYuPG1_W-52" value="Prefixes" style="graphMlID=n0;shape=swimlane;startSize=20;fillColor=#b7b69e;strokeColor=#000000;strokeWidth=1.0;align=right;spacingRight=10;fontStyle=1" parent="1" vertex="1">
          <mxGeometry x="-110" y="-370" width="1010" height="91.1" as="geometry" />
        </mxCell>
        <mxCell id="LqP2NPi9a7aLQYuPG1_W-53" value="&lt;b&gt;whata:&lt;br&gt;owl:&lt;br&gt;rdfs:&lt;/b&gt;&lt;div&gt;&lt;b&gt;cp:&lt;/b&gt;&lt;/div&gt;" style="text;html=1;align=center;verticalAlign=middle;resizable=0;points=[];autosize=1;fontFamily=Courier New;" parent="LqP2NPi9a7aLQYuPG1_W-52" vertex="1">
          <mxGeometry x="-3.583547562650267" y="21.09953721049043" width="70" height="70" as="geometry" />
        </mxCell>
        <mxCell id="LqP2NPi9a7aLQYuPG1_W-54" value="https://raw.githubusercontent.com/Salvadana/whata_ontology/main/ontology_files/_whataboutism.owl#&lt;br&gt;http://www.w3.org/2002/07/owl#&lt;br&gt;http://www.w3.org/2000/01/rdf-schema#&lt;div&gt;http://www.ontologydesignpatterns.org/ont/persp/perspectivisation.owl#&lt;br&gt;&lt;/div&gt;" style="text;html=1;align=left;verticalAlign=middle;resizable=0;points=[];autosize=1;fontFamily=Courier New;" parent="LqP2NPi9a7aLQYuPG1_W-52" vertex="1">
          <mxGeometry x="99.99645243734973" y="21.09953721049043" width="720" height="70" as="geometry" />
        </mxCell>
        <mxCell id="LqP2NPi9a7aLQYuPG1_W-58" value="whata:LinguisticExpression" style="graphMlID=n4;shape=rect;rounded=1;arcsize=30;fillColor=#ffff00;strokeColor=#000000;strokeWidth=1.0" parent="1" vertex="1">
          <mxGeometry x="540" y="450" width="160.98" height="70" as="geometry" />
        </mxCell>
        <mxCell id="LqP2NPi9a7aLQYuPG1_W-59" value="xsd:string" style="graphMlID=n6;shape=parallelogram;fillColor=#ccffcc;strokeColor=#000000;strokeWidth=1.0" parent="1" vertex="1">
          <mxGeometry x="501.90999999999997" y="600" width="126.0949682107173" height="43" as="geometry" />
        </mxCell>
        <mxCell id="LqP2NPi9a7aLQYuPG1_W-60" value="" style="graphMlID=e0;rounded=0;endArrow=block;strokeColor=#000080;strokeWidth=1.0;startArrow=oval;startFill=1;endFill=1" parent="1" source="LqP2NPi9a7aLQYuPG1_W-23" target="LqP2NPi9a7aLQYuPG1_W-58" edge="1">
          <mxGeometry relative="1" as="geometry">
            <mxPoint x="470" y="390.08183758898736" as="sourcePoint" />
            <mxPoint x="621" y="390" as="targetPoint" />
          </mxGeometry>
        </mxCell>
        <mxCell id="LqP2NPi9a7aLQYuPG1_W-61" value="&lt;span style=&quot;color: rgb(0 , 0 , 128) ; font-family: &amp;quot;dialog&amp;quot; ; font-size: 16px ; background-color: rgb(248 , 249 , 250)&quot;&gt;whata:hasExpression&lt;/span&gt;" style="text;html=1;align=center;verticalAlign=middle;resizable=0;points=[];labelBackgroundColor=#ffffff;" parent="LqP2NPi9a7aLQYuPG1_W-60" vertex="1" connectable="0">
          <mxGeometry x="-0.0174" y="2" relative="1" as="geometry">
            <mxPoint as="offset" />
          </mxGeometry>
        </mxCell>
        <mxCell id="LqP2NPi9a7aLQYuPG1_W-62" value="" style="graphMlID=e2;rounded=0;endArrow=block;strokeColor=#008000;strokeWidth=1.0;startArrow=oval;startFill=0;endFill=0" parent="1" source="LqP2NPi9a7aLQYuPG1_W-58" target="LqP2NPi9a7aLQYuPG1_W-59" edge="1">
          <mxGeometry relative="1" as="geometry">
            <mxPoint x="410" y="390" as="sourcePoint" />
            <mxPoint x="686.8107910156248" y="390.18034262995354" as="targetPoint" />
          </mxGeometry>
        </mxCell>
        <mxCell id="LqP2NPi9a7aLQYuPG1_W-63" value="&lt;span style=&quot;color: rgb(0 , 128 , 0) ; font-family: &amp;quot;dialog&amp;quot; ; font-size: 16px ; background-color: rgb(248 , 249 , 250)&quot;&gt;whata:hasIdentifyingPattern&lt;/span&gt;" style="text;html=1;align=center;verticalAlign=middle;resizable=0;points=[];labelBackgroundColor=#ffffff;" parent="LqP2NPi9a7aLQYuPG1_W-62" vertex="1" connectable="0">
          <mxGeometry x="-0.0896" y="3" relative="1" as="geometry">
            <mxPoint as="offset" />
          </mxGeometry>
        </mxCell>
        <mxCell id="LqP2NPi9a7aLQYuPG1_W-64" value="" style="endArrow=classic;html=1;rounded=0;exitX=0.5;exitY=0;exitDx=0;exitDy=0;" parent="1" source="LqP2NPi9a7aLQYuPG1_W-30" target="LqP2NPi9a7aLQYuPG1_W-23" edge="1">
          <mxGeometry width="50" height="50" relative="1" as="geometry">
            <mxPoint x="530" y="380" as="sourcePoint" />
            <mxPoint x="580" y="330" as="targetPoint" />
          </mxGeometry>
        </mxCell>
        <mxCell id="netNDr4inBoCcSag8qre-1" value="cp:Agent" style="graphMlID=n4;shape=rect;rounded=1;arcsize=30;fillColor=#ffff00;strokeColor=#000000;strokeWidth=1.0" vertex="1" parent="1">
          <mxGeometry x="790" y="-62" width="81.96822102864604" height="44" as="geometry" />
        </mxCell>
        <mxCell id="netNDr4inBoCcSag8qre-2" value="" style="graphMlID=e0;rounded=0;endArrow=block;strokeColor=#000080;strokeWidth=1.0;startArrow=oval;startFill=1;endFill=1" edge="1" parent="1" source="LqP2NPi9a7aLQYuPG1_W-38" target="netNDr4inBoCcSag8qre-1">
          <mxGeometry relative="1" as="geometry">
            <mxPoint x="829.5" y="114.08183758898736" as="sourcePoint" />
            <mxPoint x="980.5" y="114" as="targetPoint" />
          </mxGeometry>
        </mxCell>
        <mxCell id="netNDr4inBoCcSag8qre-3" value="&lt;span style=&quot;color: rgb(0 , 0 , 128) ; font-family: &amp;quot;dialog&amp;quot; ; font-size: 16px ; background-color: rgb(248 , 249 , 250)&quot;&gt;cp:Agent&lt;/span&gt;" style="text;html=1;align=center;verticalAlign=middle;resizable=0;points=[];labelBackgroundColor=#ffffff;" vertex="1" connectable="0" parent="netNDr4inBoCcSag8qre-2">
          <mxGeometry x="-0.0174" y="2" relative="1" as="geometry">
            <mxPoint as="offset" />
          </mxGeometry>
        </mxCell>
        <mxCell id="netNDr4inBoCcSag8qre-4" value="" style="endArrow=classic;html=1;rounded=0;exitX=0;exitY=0.75;exitDx=0;exitDy=0;entryX=1;entryY=0.5;entryDx=0;entryDy=0;" edge="1" parent="1" source="netNDr4inBoCcSag8qre-1" target="LqP2NPi9a7aLQYuPG1_W-15">
          <mxGeometry width="50" height="50" relative="1" as="geometry">
            <mxPoint x="740" as="sourcePoint" />
            <mxPoint x="740" y="-160" as="targetPoint" />
          </mxGeometry>
        </mxCell>
        <mxCell id="netNDr4inBoCcSag8qre-5" value="whata:BlamingFrameSituation" style="graphMlID=n4;shape=rect;rounded=1;arcsize=30;fillColor=#ffff00;strokeColor=#000000;strokeWidth=1.0" vertex="1" parent="1">
          <mxGeometry x="201.97" y="-104" width="175.5" height="54" as="geometry" />
        </mxCell>
        <mxCell id="netNDr4inBoCcSag8qre-7" value="" style="graphMlID=e0;rounded=0;endArrow=block;strokeColor=#000080;strokeWidth=1.0;startArrow=oval;startFill=1;endFill=1;exitX=0.75;exitY=1;exitDx=0;exitDy=0;" edge="1" parent="1" source="netNDr4inBoCcSag8qre-5" target="LqP2NPi9a7aLQYuPG1_W-1">
          <mxGeometry relative="1" as="geometry">
            <mxPoint x="330" as="sourcePoint" />
            <mxPoint x="624" y="157" as="targetPoint" />
          </mxGeometry>
        </mxCell>
        <mxCell id="netNDr4inBoCcSag8qre-8" value="&lt;span style=&quot;color: rgb(0, 0, 128); font-family: dialog; background-color: rgb(248, 249, 250);&quot;&gt;&lt;font style=&quot;font-size: 14px;&quot;&gt;whata:isComposedBy&lt;/font&gt;&lt;/span&gt;" style="text;html=1;align=center;verticalAlign=middle;resizable=0;points=[];labelBackgroundColor=#ffffff;" vertex="1" connectable="0" parent="netNDr4inBoCcSag8qre-7">
          <mxGeometry x="-0.0174" y="2" relative="1" as="geometry">
            <mxPoint as="offset" />
          </mxGeometry>
        </mxCell>
      </root>
    </mxGraphModel>
  </diagram>
</mxfile>
